<svg xmlns="http://www.w3.org/2000/svg" width="48" height="48" viewBox="0 0 48 48" role="img" aria-label="My Farm Adviser mascot">
  <rect width="48" height="48" rx="12" fill="#fff7e8"/>
  <circle cx="24" cy="17" r="10" fill="#ffffff"/>
  <path d="M24 19v9" stroke="#2f8f4c" stroke-width="3" stroke-linecap="round"/>
  <path d="M24 16c-2-6-8-9-14-7 4-8 12-10 17-4 1 1 2 2 2 3-1 2-2 5-5 8z" fill="#50b86b"/>
  <path d="M24 16c2-6 8-9 14-7-4-8-12-10-17-4-1 1-2 2-2 3 1 2 2 5 5 8z" fill="#2f8f4c"/>
  <rect x="10" y="24" width="28" height="5" rx="2.5" fill="#9b6a43"/>
  <rect x="15" y="23" width="18" height="12" rx="6" fill="#b47d50"/>
  <circle cx="20" cy="28" r="2.3" fill="#25433a"/><circle cx="28" cy="28" r="2.3" fill="#25433a"/>
  <path d="M19 33c2 1 3 1.5 5 1.5s3-.5 5-1.5" fill="none" stroke="#25433a" stroke-width="2" stroke-linecap="round"/>
  <path d="M24 34v5" stroke="#6f4a2e" stroke-width="2.5" stroke-linecap="round"/>
  <path d="M24 35c-5 2-7 5-8 9" fill="none" stroke="#6f4a2e" stroke-width="2" stroke-linecap="round"/>
  <path d="M24 35c5 2 7 5 8 9" fill="none" stroke="#6f4a2e" stroke-width="2" stroke-linecap="round"/>
</svg>
